# AST/ASF file generated using VICON BodyLanguage
# -----------------------------------------------
:version 1.10
:name VICON
:units
  mass 1.0
  length 0.45
  angle deg
:documentation
   .ast/.asf automatically generated from VICON data using
   VICON BodyBuilder and BodyLanguage model FoxedUp or BRILLIANT.MOD
:root
   order TX TY TZ RX RY RZ
   axis XYZ
   position 0 0 0  
   orientation 0 0 0 
:bonedata
  begin
     id 1 
     name lhipjoint
     direction 0.612567 -0.751349 0.245431 
     length 2.42285 
     axis 0 0 0  XYZ
  end
  begin
     id 2 
     name lfemur
     direction 0.34202 -0.939693 0  
     length 7.11304  
     axis 0 0 20  XYZ
    dof rx ry rz
    limits (-160.0 20.0)
           (-70.0 70.0)
           (-60.0 70.0)
  end
  begin
     id 3 
     name ltibia
     direction 0.34202 -0.939693 0   
     length 7.84529   
     axis 0 0 20   XYZ
    dof rx
    limits (-10.0 170.0)
  end
  begin
     id 4 
     name lfoot
     direction 0.0779239 -0.214094 0.9737   
     length 1.97176   
     axis -90 7.62852e-016 20   XYZ
    dof rx rz
    limits (-45.0 90.0)
           (-70.0 20.0)
  end
  begin
     id 5 
     name ltoes
     direction 1.53565e-011 -4.21709e-011 1   
     length 0.993197   
     axis -90 7.62852e-016 20   XYZ
    dof rx
    limits (-90.0 20.0)
  end
  begin
     id 6 
     name rhipjoint
     direction -0.665722 -0.709315 0.231701   
     length 2.56642  
     axis 0 0 0  XYZ 
  end
  begin
     id 7 
     name rfemur
     direction -0.34202 -0.939693 0   
     length 7.32108   
     axis 0 0 -20   XYZ
    dof rx ry rz
    limits (-160.0 20.0)
           (-70.0 70.0)
           (-70.0 60.0)
  end
  begin
     id 8 
     name rtibia
     direction -0.34202 -0.939693 0   
     length 7.81254   
     axis 0 0 -20   XYZ
    dof rx
    limits (-10.0 170.0)
 end
 begin
     id 9 
     name rfoot
     direction -0.0832806 -0.228812 0.969902   
     length 2.08278  
     axis -90 -7.62852e-016 -20   XYZ
    dof rx rz
    limits (-45.0 90.0)
           (-20.0 70.0)
  end
  begin
     id 10 
     name rtoes
     direction -1.53589e-011 -4.22086e-011 1   
     length 1.04609   
     axis -90 -7.62852e-016 -20   XYZ
    dof rx
    limits (-90.0 20.0)
  end
  begin
     id 11 
     name lowerback
     direction -0.00506013 0.988403 -0.151766   
     length 2.01978   
     axis 0 0 0   XYZ
    dof rx ry rz
    limits (-20.0 45.0)
           (-30.0 30.0)
           (-30.0 30.0)
  end
  begin
     id 12 
     name upperback
     direction -0.00836389 0.99968 0.0238859   
     length 2.01276   
     axis 0 0 0   XYZ
    dof rx ry rz
    limits (-20.0 45.0)
           (-30.0 30.0)
           (-30.0 30.0)
  end
  begin
     id 13 
     name thorax
     direction -0.00684136 0.995386 0.0957043   
     length 2.07303   
     axis 0 0 0   XYZ
    dof rx ry rz
    limits (-20.0 45.0)
           (-30.0 30.0)
           (-30.0 30.0)
  end
  begin
     id 14 
     name lowerneck
     direction -0.0161045 0.999661 0.0204485   
     length 1.91243   
     axis 0 0 0   XYZ
    dof rx ry rz
    limits (-20.0 45.0)
           (-30.0 30.0)
           (-30.0 30.0)
  end
  begin
     id 15 
     name upperneck
     direction 0.0553583 0.990946 -0.122319   
     length 1.91574   
     axis 0 0 0   XYZ
    dof rx ry rz
    limits (-20.0 45.0)
           (-30.0 30.0)
           (-30.0 30.0)
  end
  begin
     id 16
     name head
     direction 0.0180273 0.998839 -0.0446756  
     length 1.92693  
     axis 0 0 0   XYZ
    dof rx ry rz
    limits (-20.0 45.0)
           (-30.0 30.0)
           (-30.0 30.0)
  end
  begin
     id 17 
     name lclavicle
     direction 0.945646 0.319323 -0.0615358  
     length 4.0076  
     axis 0 0 0   XYZ
    dof ry rz
    limits (-20.0 10.0)
           (0.0 20.0)
  end
  begin
     id 18 
     name lhumerus
     direction 1 -4.48967e-011 -2.79996e-027   
     length 5.64147   
     axis 180 -30 -90   XYZ
    dof rx ry rz
    limits (-60.0 90.0)
           (-90.0 90.0)
           (-90.0 90.0)
  end
  begin
     id 19
     name lradius
     direction 1 -4.48976e-011 -9.5122e-027   
     length 2.86444   
     axis 180 -30 -90   XYZ
    dof rx
    limits (-10.0 170.0)
  end
  begin
     id 20
     name lwrist
     direction 1 -4.48983e-011 -1.24047e-026   
     length 1.43222   
     axis 9.05591e-015 90 90   XYZ
    dof ry
    limits (-180.0 0.0)
 end
  begin
     id 21 
     name lhand
     direction 1 -4.4892e-011 -2.48094e-026   
     length 0.722123   
     axis 1.58305e-014 90 90   XYZ
    dof rx rz
    limits (-90.0 90.0)
           (-45.0 45.0)
  end
  begin
     id 22 
     name lfingers
     direction 1 -4.48895e-011 -4.96187e-026   
     length 0.582194   
     axis 3.1661e-014 90 90   XYZ
    dof rx
    limits (0.0 90.0)
  end
  begin
     id 23
     name lthumb
     direction 0.707107 -6.34961e-011 0.707107   
     length 0.835918   
     axis -90 45 2.85299e-015   XYZ
    dof rx rz
    limits (-45.0 45.0)
           (-45.0 45.0)
  end
  begin
     id 24 
     name rclavicle
     direction -0.932635 0.324218 -0.15835   
     length 3.65819  
     axis 0 0 0   XYZ 
    dof ry rz
    limits (-10.0 20.0)
           (-20.0 0.0)
  end
  begin
     id 25 
     name rhumerus
     direction -1 -4.48965e-011 -4.02296e-027  
     length 5.44729   
     axis 180 30 90   XYZ
    dof rx ry rz
    limits (-90.0 60.0)
           (-90.0 90.0)
           (-90.0 90.0)
  end
  begin
     id 26 
     name rradius
     direction -1 -4.48957e-011 -8.81087e-027   
     length 3.08821   
     axis 180 30 90   XYZ
    dof rx
    limits (-10.0 170.0)
  end
  begin
     id 27 
     name rwrist
     direction -1 -4.49015e-011 -1.24047e-026   
     length 1.5441   
     axis 9.05591e-015 -90 -90   XYZ
    dof ry
    limits (-180.0 0.0)
  end
  begin
     id 28
     name rhand
     direction -1 -4.4891e-011 -2.48094e-026   
     length 0.821049   
     axis 1.58305e-014 -90 -90   XYZ
    dof rx rz
    limits (-90.0 90.0)
           (-45.0 45.0)
  end
  begin
     id 29
     name rfingers
     direction -1 -4.48985e-011 -4.96187e-026   
     length 0.661951   
     axis 3.1661e-014 -90 -90   XYZ
    dof rx
    limits (0.0 90.0)
  end
  begin
     id 30
     name rthumb
     direction -0.707107 -6.34906e-011 0.707107   
     length 0.950433   
     axis -90 -45 -2.85299e-015   XYZ
    dof rx rz
    limits (-45.0 45.0)
           (-45.0 45.0)
  end
:hierarchy
  begin
    root lhipjoint rhipjoint lowerback
    lhipjoint lfemur
    lfemur ltibia
    ltibia lfoot
    lfoot ltoes
    rhipjoint rfemur
    rfemur rtibia
    rtibia rfoot
    rfoot rtoes
    lowerback upperback
    upperback thorax
    thorax lowerneck lclavicle rclavicle
    lowerneck upperneck
    upperneck head
    lclavicle lhumerus
    lhumerus lradius
    lradius lwrist
    lwrist lhand lthumb
    lhand lfingers
    rclavicle rhumerus
    rhumerus rradius
    rradius rwrist
    rwrist rhand rthumb
    rhand rfingers
  end

#!OML:ASF F:\VICON\USERDATA\INSTALL\rory3\rory3.ASF
:FULLY-SPECIFIED
:DEGREES
1894
root 3.28505 17.7647 0.376874 -34.0019 88.3272 -34.257
lowerback 2.34741 0.198645 2.93583
upperback 0.0918889 0.335226 -0.759871
thorax -1.20053 0.149933 -2.43777
lowerneck -2.44305 -5.32169 -5.40365
upperneck 3.66878 -7.22371 8.32584
head 2.18029 -3.49912 3.47363
rclavicle -5.90763e-015 5.1684e-015
rhumerus -35.5922 -6.85786 -82.331
rradius 31.1737
rwrist 16.0164
rhand -5.95824 10.0593
rfingers 7.12502
rthumb 19.8725 -18.9447
lclavicle -5.90763e-015 5.1684e-015
lhumerus -34.0852 -6.19847 86.9527
lradius 29.4026
lwrist 26.8699
lhand -9.34932 10.9073
lfingers 7.12502
lthumb 16.6102 40.2165
rfemur 0.458813 1.78387 19.829
rtibia 13.8618
rfoot -15.6356 -1.13468
rtoes -7.39373
lfemur 0 0 0
ltibia 0
lfoot 0 0
ltoes 0
1895
root 3.28512 17.7625 0.376397 -34.2099 88.3353 -34.455
lowerback 2.3652 0.208402 2.97322
upperback 0.089741 0.349524 -0.783478
thorax -1.21144 0.156616 -2.48368
lowerneck -2.44111 -5.34941 -5.39842
upperneck 3.67316 -7.26223 8.34745
head 2.18528 -3.51761 3.47862
rclavicle 4.00054e-015 2.78299e-015
rhumerus -35.6211 -6.94358 -82.3146
rradius 31.1623
rwrist 16.0677
rhand -5.99459 10.0682
rfingers 7.12502
rthumb 19.8376 -18.9394
lclavicle 4.00054e-015 2.78299e-015
lhumerus -34.1083 -6.3438 87.0023
lradius 29.4126
lwrist 26.9122
lhand -9.43997 10.8337
lfingers 7.12502
lthumb 16.5229 40.1502
rfemur 0.526604 1.70556 19.8312
rtibia 13.7822
rfoot -15.5966 -1.06356
rtoes -7.28921
lfemur 0 0 0
ltibia 0
lfoot 0 0
ltoes 0
1896
root 3.2853 17.7642 0.377176 -32.0878 88.3803 -32.3369
lowerback 2.36117 0.213672 2.8876
upperback 0.0887489 0.353944 -0.800859
thorax -1.21029 0.159281 -2.45354
lowerneck -2.44283 -5.37397 -5.40183
upperneck 3.68505 -7.29551 8.34118
head 2.19197 -3.53419 3.47562
rclavicle -1.45982e-015 1.43125e-014
rhumerus -35.6237 -6.99695 -82.2877
rradius 31.1564
rwrist 16.1215
rhand -5.76988 9.92727
rfingers 7.12502
rthumb 20.0536 -19.0579
lclavicle -1.45982e-015 1.43125e-014
lhumerus -34.1122 -6.37636 87.0395
lradius 29.4163
lwrist 26.9639
lhand -9.54965 10.8297
lfingers 7.12502
lthumb 16.4173 40.1549
rfemur 0.541835 1.67293 19.7456
rtibia 13.733
rfoot -15.5906 -1.01259
rtoes -6.59129
lfemur 0 0 0
ltibia 0
lfoot 0 0
ltoes 0
1897
root 3.28611 17.7663 0.377781 -30.7462 88.3914 -31.0025
lowerback 2.33823 0.212231 2.83506
upperback 0.0937907 0.349911 -0.801708
thorax -1.1928 0.157906 -2.42457
lowerneck -2.4604 -5.36878 -5.41395
upperneck 3.70743 -7.28912 8.35015
head 2.20321 -3.53033 3.48083
rclavicle 1.54679e-015 6.16232e-015
rhumerus -35.5863 -7.03102 -82.2645
rradius 31.1002
rwrist 16.1754
rhand -5.38314 9.70214
rfingers 7.12502
rthumb 20.4252 -19.2436
lclavicle 1.54679e-015 6.16232e-015
lhumerus -34.1098 -6.41645 87.0711
lradius 29.4166
lwrist 27.0147
lhand -9.55033 10.8248
lfingers 7.12502
lthumb 16.4166 40.1501
rfemur 0.525475 1.64552 19.7091
rtibia 13.7387
rfoot -15.5756 -1.01798
rtoes -6.78085
lfemur 0 0 0
ltibia 0
lfoot 0 0
ltoes 0
1898
root 3.28688 17.767 0.377344 -30.5994 88.385 -30.8662
lowerback 2.31101 0.219124 2.85632
upperback 0.0979907 0.358744 -0.810487
thorax -1.1725 0.162562 -2.44565
lowerneck -2.48277 -5.37313 -5.42618
upperneck 3.71053 -7.29522 8.38227
head 2.21115 -3.53225 3.49356
rclavicle 8.69683e-016 5.96354e-015
rhumerus -35.5665 -7.09431 -82.2372
rradius 31.0711
rwrist 16.1648
rhand -5.10184 9.56936
rfingers 7.12502
rthumb 20.6956 -19.3472
lclavicle 8.69683e-016 5.96354e-015
lhumerus -34.0926 -6.39581 87.0575
lradius 29.401
lwrist 26.9564
lhand -9.45845 10.8225
lfingers 7.12502
lthumb 16.5051 40.1404
rfemur 0.497078 1.57542 19.7095
rtibia 13.7691
rfoot -15.5428 -1.08332
rtoes -7.73704
lfemur 0 0 0
ltibia 0
lfoot 0 0
ltoes 0
1899
root 3.28653 17.7651 0.376774 -32.0638 88.3852 -32.3534
lowerback 2.2727 0.215382 2.91559
upperback 0.0994309 0.35415 -0.809054
thorax -1.1495 0.160326 -2.4771
lowerneck -2.46908 -5.37087 -5.41411
upperneck 3.68549 -7.29174 8.38507
head 2.19959 -3.53086 3.49279
rclavicle -2.13072e-015 -4.77083e-015
rhumerus -35.5558 -7.17004 -82.211
rradius 31.0673
rwrist 16.1732
rhand -5.16297 9.62798
rfingers 7.12502
rthumb 20.6368 -19.2949
lclavicle -2.13072e-015 -4.77083e-015
lhumerus -34.0477 -6.30845 87.0149
lradius 29.3508
lwrist 26.8535
lhand -9.37621 10.8468
lfingers 7.12502
lthumb 16.5843 40.1581
rfemur 0.479083 1.55218 19.7468
rtibia 13.7763
rfoot -15.5729 -1.08963
rtoes -7.96588
lfemur 0 0 0
ltibia 0
lfoot 0 0
ltoes 0
1900
root 3.28708 17.7641 0.376497 -30.7001 88.3935 -30.977
lowerback 2.28293 0.209899 2.87628
upperback 0.103241 0.346042 -0.815876
thorax -1.15203 0.15649 -2.46181
lowerneck -2.51415 -5.35474 -5.39063
upperneck 3.73415 -7.27111 8.36095
head 2.22 -3.51911 3.47957
rclavicle 3.12465e-015 -2.38542e-015
rhumerus -35.5422 -7.07645 -82.2517
rradius 31.0566
rwrist 16.0737
rhand -5.39279 9.74254
rfingers 7.12502
rthumb 20.416 -19.2042
lclavicle 3.12465e-015 -2.38542e-015
lhumerus -34.0467 -6.30325 87.0221
lradius 29.3619
lwrist 26.8808
lhand -9.29837 10.8738
lfingers 7.12502
lthumb 16.6592 40.1789
rfemur 0.501718 1.51318 19.6973
rtibia 13.7791
rfoot -15.5536 -1.07867
rtoes -8.33869
lfemur 0 0 0
ltibia 0
lfoot 0 0
ltoes 0
1901
root 3.2867 17.764 0.37653 -31.6287 88.3653 -31.9077
lowerback 2.29994 0.216665 2.92648
upperback 0.0882427 0.35698 -0.81353
thorax -1.17598 0.161086 -2.48815
lowerneck -2.51162 -5.36882 -5.37403
upperneck 3.7536 -7.2911 8.3447
head 2.22588 -3.52893 3.46992
rclavicle -2.51587e-015 6.16232e-015
rhumerus -35.5631 -7.06806 -82.2696
rradius 31.0146
rwrist 16.1235
rhand -5.36243 9.59098
rfingers 7.12502
rthumb 20.4452 -19.3526
lclavicle -2.51587e-015 6.16232e-015
lhumerus -34.0618 -6.33769 87.0302
lradius 29.3635
lwrist 26.8787
lhand -9.32824 10.8169
lfingers 7.12502
lthumb 16.6304 40.1244
rfemur 0.470114 1.53169 19.7322
rtibia 13.821
rfoot -15.5568 -1.01516
rtoes -7.37846
lfemur 0 0 0
ltibia 0
lfoot 0 0
ltoes 0
1902
root 3.28644 17.7672 0.377518 -31.7749 88.3736 -32.0631
lowerback 2.29821 0.219589 2.91728
upperback 0.0770401 0.360683 -0.810742
thorax -1.18634 0.16266 -2.48026
lowerneck -2.51939 -5.37595 -5.38766
upperneck 3.7806 -7.30188 8.35658
head 2.23844 -3.53368 3.47594
rclavicle 5.03174e-016 5.1684e-015
rhumerus -35.5506 -7.06485 -82.2609
rradius 30.9654
rwrist 16.1689
rhand -5.2225 9.46802
rfingers 7.12502
rthumb 20.5796 -19.4611
lclavicle 5.03174e-016 5.1684e-015
lhumerus -34.0784 -6.45409 87.0944
lradius 29.3606
lwrist 27.0231
lhand -9.41492 10.6484
lfingers 7.12502
lthumb 16.547 39.9629
rfemur 0.410945 1.63862 19.7341
rtibia 13.8508
rfoot -15.5757 -1.01081
rtoes -5.6251
lfemur 0 0 0
ltibia 0
lfoot 0 0
ltoes 0
1903
root 3.2866 17.7705 0.379039 -30.2875 88.3779 -30.5824
lowerback 2.28772 0.234045 2.86457
upperback 0.0748658 0.378202 -0.818839
thorax -1.18183 0.171737 -2.45944
lowerneck -2.5412 -5.37833 -5.38748
upperneck 3.82037 -7.3067 8.36083
head 2.25629 -3.53491 3.47656
rclavicle -7.07549e-015 0
rhumerus -35.5456 -7.07161 -82.2476
rradius 30.9589
rwrist 16.1433
rhand -5.19003 9.45817
rfingers 7.12502
rthumb 20.6108 -19.4676
lclavicle -7.07549e-015 0
lhumerus -34.0575 -6.42829 87.0861
lradius 29.3144
lwrist 26.9744
lhand -9.39105 10.5726
lfingers 7.12502
lthumb 16.57 39.8852
rfemur 0.382785 1.70454 19.6996
rtibia 13.8546
rfoot -15.5728 -1.07635
rtoes -5.58421
lfemur 0 0 0
ltibia 0
lfoot 0 0
ltoes 0
1904
root 3.28717 17.7673 0.380866 -30.007 88.3612 -30.3109
lowerback 2.25568 0.237254 2.8387
upperback 0.0777669 0.380974 -0.808141
thorax -1.16094 0.173652 -2.43375
lowerneck -2.54042 -5.36487 -5.40987
upperneck 3.81309 -7.28831 8.38263
head 2.25457 -3.52575 3.48924
rclavicle -3.62782e-015 7.95139e-016
rhumerus -35.5505 -7.04689 -82.2496
rradius 30.9913
rwrist 16.0798
rhand -5.12223 9.3985
rfingers 7.12502
rthumb 20.676 -19.5202
lclavicle -3.62782e-015 7.95139e-016
lhumerus -34.058 -6.39921 87.0927
lradius 29.3123
lwrist 26.9352
lhand -9.40425 10.6257
lfingers 7.12502
lthumb 16.5573 39.9393
rfemur 0.38323 1.70271 19.7175
rtibia 13.875
rfoot -15.5923 -1.06996
rtoes -6.33644
lfemur 0 0 0
ltibia 0
lfoot 0 0
ltoes 0
1905
root 3.2875 17.7643 0.381408 -28.6431 88.364 -28.9248
lowerback 2.2765 0.243664 2.80839
upperback 0.080172 0.389132 -0.827399
thorax -1.1697 0.177767 -2.43691
lowerneck -2.53871 -5.35976 -5.38937
upperneck 3.79377 -7.28147 8.39214
head 2.24678 -3.52201 3.48906
rclavicle -2.98798e-015 7.35503e-015
rhumerus -35.5719 -7.07525 -82.2623
rradius 31.0163
rwrist 16.0896
rhand -5.10531 9.37829
rfingers 7.12502
rthumb 20.6922 -19.5386
lclavicle -2.98798e-015 7.35503e-015
lhumerus -34.0895 -6.36659 87.0646
lradius 29.3762
lwrist 26.9027
lhand -9.36529 10.7285
lfingers 7.12502
lthumb 16.5948 40.039
rfemur 0.421319 1.76982 19.6797
rtibia 13.9092
rfoot -15.6824 -0.983523
rtoes -6.06711
lfemur 0 0 0
ltibia 0
lfoot 0 0
ltoes 0
1906
root 3.28863 17.7627 0.381288 -27.0307 88.3572 -27.2897
lowerback 2.31597 0.253828 2.78688
upperback 0.0591142 0.403117 -0.849938
thorax -1.21254 0.183878 -2.44881
lowerneck -2.49053 -5.3591 -5.381
upperneck 3.78171 -7.28207 8.40225
head 2.2341 -3.52305 3.49215
rclavicle -7.95139e-016 -5.1684e-015
rhumerus -35.6034 -7.1649 -82.2453
rradius 30.9947
rwrist 16.2102
rhand -5.13314 9.42352
rfingers 7.12502
rthumb 20.6655 -19.4963
lclavicle -7.95139e-016 -5.1684e-015
lhumerus -34.1136 -6.40292 87.0667
lradius 29.3635
lwrist 26.9403
lhand -9.35548 10.7763
lfingers 7.12502
lthumb 16.6042 40.086
rfemur 0.446615 1.8257 19.6341
rtibia 13.9124
rfoot -15.7066 -0.949063
rtoes -6.02507
lfemur 0 0 0
ltibia 0
lfoot 0 0
ltoes 0
1907
root 3.28904 17.7634 0.381458 -25.6248 88.3618 -25.8908
lowerback 2.37161 0.24658 2.76549
upperback 0.00896734 0.394445 -0.871721
thorax -1.29575 0.177632 -2.45954
lowerneck -2.4983 -5.34983 -5.36911
upperneck 3.85902 -7.27339 8.38823
head 2.25927 -3.51755 3.48499
rclavicle -2.52208e-015 -1.98785e-016
rhumerus -35.6761 -7.06801 -82.2876
rradius 31.0351
rwrist 16.1277
rhand -5.23342 9.55914
rfingers 7.12502
rthumb 20.5691 -19.3711
lclavicle -2.52208e-015 -1.98785e-016
lhumerus -34.1716 -6.46563 87.0785
lradius 29.3343
lwrist 26.9985
lhand -9.32486 10.707
lfingers 7.12502
lthumb 16.6337 40.0142
rfemur 0.412122 1.73442 19.5906
rtibia 13.9425
rfoot -15.6491 -1.00819
rtoes -7.27436
lfemur 0 0 0
ltibia 0
lfoot 0 0
ltoes 0
1908
root 3.28898 17.7639 0.3825 -24.844 88.4028 -25.127
lowerback 2.36451 0.234892 2.74433
upperback -0.00480268 0.377799 -0.902817
thorax -1.30688 0.169018 -2.47909
lowerneck -2.47577 -5.33966 -5.33761
upperneck 3.8327 -7.26037 8.39763
head 2.2443 -3.51107 3.48345
rclavicle -1.06847e-015 -9.93923e-016
rhumerus -35.6971 -6.98289 -82.3639
rradius 31.0572
rwrist 16.0578
rhand -5.42159 9.65834
rfingers 7.12502
rthumb 20.3883 -19.2914
lclavicle -1.06847e-015 -9.93923e-016
lhumerus -34.1813 -6.45728 87.0258
lradius 29.3471
lwrist 26.979
lhand -9.30528 10.7419
lfingers 7.12502
lthumb 16.6526 40.0475
rfemur 0.362032 1.65113 19.5598
rtibia 14.0046
rfoot -15.6476 -1.03892
rtoes -7.49243
lfemur 0 0 0
ltibia 0
lfoot 0 0
ltoes 0
